<?xml version="1.0" encoding="UTF-8" standalone="no"?><!DOCTYPE svg PUBLIC "-//W3C//DTD SVG 1.1//EN" "http://www.w3.org/Graphics/SVG/1.1/DTD/svg11.dtd"><svg width="100%" height="100%" viewBox="0 0 1000 1000" version="1.1" xmlns="http://www.w3.org/2000/svg" xmlns:xlink="http://www.w3.org/1999/xlink" xml:space="preserve" xmlns:affinity="https://www.affinity.studio/" style="fill-rule:evenodd;clip-rule:evenodd;stroke-linejoin:round;stroke-miterlimit:2;"><rect id="Studio-Sec" affinity:id="Studio Sec" x="0" y="0" width="1000" height="1000" style="fill:none;"/><clipPath id="_clip1"><rect x="0" y="0" width="1000" height="1000"/></clipPath><g clip-path="url(#_clip1)"><rect x="0" y="0" width="1000" height="1015.637" style="fill:#bee1fc;"/><g><path d="M483.334,240.272l-196.503,305.235l-29.608,-45.507l-35.839,-55.078c-6.667,-10.245 -6.7,-23.452 -0.082,-33.73l100.869,-156.683c5.714,-8.874 15.544,-14.237 26.097,-14.237l135.066,0Z" style="fill:#2b2b2b;fill-rule:nonzero;"/><path d="M778.698,588.808l-100.869,156.681c-5.714,8.874 -15.544,14.239 -26.097,14.239l-135.019,0l196.456,-305.237l29.606,45.509l35.841,55.076c6.667,10.247 6.7,23.454 0.082,33.733" style="fill:#2b2b2b;fill-rule:nonzero;"/><path d="M523.637,437.396c-1.147,1.671 -2.816,5.109 -1.097,9.503l10.266,26.788l1.48,3.821l6.877,17.907l10.315,26.79c9.119,23.734 5.968,50.427 -8.453,71.343c-14.374,20.963 -38.155,33.474 -63.558,33.474l-80.752,0l-85.381,132.706l-66.197,-93.741c-7.296,-10.332 -7.592,-24.057 -0.75,-34.694l45.745,-71.123l187.334,0c0.573,0 1.145,-0.047 1.671,-0.144l0.047,0c3.63,-0.573 5.732,-2.914 6.733,-4.345c1.05,-1.482 2.579,-4.585 1.482,-8.453c-0.097,-0.335 -0.191,-0.668 -0.337,-1.003l-10.311,-26.837l-4.014,-10.457l-4.345,-11.271l-10.268,-26.788c-9.119,-23.734 -5.968,-50.38 8.406,-71.343c14.372,-20.916 38.153,-33.428 63.56,-33.428l73.921,0l80.939,-125.828l66.242,93.784c7.298,10.334 7.594,24.063 0.75,34.701l-41.3,64.197l-180.552,0c-4.68,0 -7.308,2.77 -8.453,4.441" style="fill:#2b2b2b;fill-rule:nonzero;"/></g></g></svg>